<svg xmlns="http://www.w3.org/2000/svg" width="24" height="24" fill="none" viewBox="0 0 24 24">
  <path fill="#171D26" d="M4 2a2 2 0 0 0-2 2v4a1 1 0 1 0 2 0V5.414l3.293 3.293a1 1 0 0 0 1.414-1.414L5.414 4H8a1 1 0 0 0 0-2H4Zm18 2a2 2 0 0 0-2-2h-4a1 1 0 1 0 0 2h2.586l-3.293 3.293a1 1 0 0 0 1.414 1.414L20 5.414V8a1 1 0 1 0 2 0V4ZM2 20a2 2 0 0 0 2 2h4a1 1 0 1 0 0-2H5.414l3.293-3.293a1 1 0 1 0-1.414-1.414L4 18.586V16a1 1 0 1 0-2 0v4Zm20 0a2 2 0 0 1-2 2h-4a1 1 0 1 1 0-2h2.586l-3.293-3.293a1 1 0 0 1 1.414-1.414L20 18.586V16a1 1 0 1 1 2 0v4Z"/>
</svg>
