<svg xmlns="http://www.w3.org/2000/svg" width="24" height="24" fill="none" viewBox="0 0 24 24">
  <path fill="#171D26" d="M12 21c-.683 0-1.538-.071-2.563-.213a16.483 16.483 0 0 1-2.962-.687c-.95-.317-1.767-.73-2.45-1.238C3.342 18.354 3 17.733 3 17v-2.5c0 .733.342 1.354 1.025 1.862.683.509 1.5.921 2.45 1.238.95.316 1.937.546 2.962.687 1.025.142 1.88.213 2.563.213.7 0 1.562-.071 2.587-.213a15.746 15.746 0 0 0 2.988-.712l1.75 1.75c-1.033.6-2.283 1.029-3.75 1.287-1.467.259-2.658.388-3.575.388Zm8.775-3.05-1.25-1.25c.45-.284.808-.608 1.075-.975.267-.367.4-.775.4-1.225V17c0 .183-.017.35-.05.5-.033.15-.092.3-.175.45ZM12 16c-.683 0-1.538-.071-2.563-.213a16.483 16.483 0 0 1-2.962-.687c-.95-.317-1.767-.73-2.45-1.238C3.342 13.354 3 12.733 3 12V9.5c0 .733.342 1.354 1.025 1.862.683.509 1.5.921 2.45 1.238.95.316 1.937.546 2.962.687 1.025.142 1.88.213 2.563.213.2 0 .42-.004.662-.013.242-.008.496-.029.763-.062L15.6 15.6c-.683.133-1.338.233-1.963.3-.625.066-1.17.1-1.637.1Zm5.825-1-1.95-1.95a13.826 13.826 0 0 0 3.525-1.275C20.467 11.208 21 10.45 21 9.5V12c0 .7-.304 1.296-.913 1.787-.608.492-1.362.896-2.262 1.213Zm-6.85-4.025c-2.267-.117-4.163-.55-5.688-1.3C3.762 8.925 3 8.033 3 7c0-.434.146-.846.437-1.238.292-.391.705-.754 1.238-1.087l6.3 6.3Zm2.775-.05L6.625 3.8c.75-.25 1.58-.446 2.487-.588A18.74 18.74 0 0 1 12 3c2.5 0 4.625.391 6.375 1.175C20.125 4.958 21 5.9 21 7c0 .966-.688 1.816-2.063 2.55-1.375.733-3.104 1.191-5.187 1.375ZM19.775 22.6 1.4 4.225 2.8 2.8l18.4 18.4-1.425 1.4Z"/>
</svg>
