<svg xmlns="http://www.w3.org/2000/svg" width="24" height="24" fill="none" viewBox="0 0 24 24">
  <g clip-path="url(#a)">
    <path fill="#171D26" d="M8 2a1 1 0 0 1 1 1v1h6V3a1 1 0 1 1 2 0v1h1a3 3 0 0 1 3 3v6a1 1 0 1 1-2 0V8H5v9a1 1 0 0 0 1 1h4a1 1 0 1 1 0 2H6a3 3 0 0 1-3-3V7a3 3 0 0 1 3-3h1V3a1 1 0 0 1 1-1Z"/>
    <path fill="#171D26" d="M8 10a1 1 0 1 0 0 2h2a1 1 0 1 0 0-2H8Z"/>
    <path fill="#171D26" fill-rule="evenodd" d="M18 22.465a4 4 0 1 1 0-6.929 4 4 0 1 1 0 6.929Zm1.5-1.528a2.002 2.002 0 0 0 2.483-1.676 2 2 0 0 0-2.482-2.198c.318.574.499 1.234.499 1.937 0 .703-.181 1.363-.5 1.937Z" clip-rule="evenodd"/>
  </g>
  <defs>
    <clipPath id="a">
      <path fill="#fff" d="M0 0h24v24H0z"/>
    </clipPath>
  </defs>
</svg>
